<?xml version="1.0" standalone="no"?>
<!DOCTYPE svg PUBLIC "-//W3C//DTD SVG 20010904//EN"
 "http://www.w3.org/TR/2001/REC-SVG-20010904/DTD/svg10.dtd">
<svg version="1.0" xmlns="http://www.w3.org/2000/svg"
 width="920.000000pt" height="512.000000pt" viewBox="0 0 920.000000 512.000000"
 preserveAspectRatio="xMidYMid meet">
<metadata>
Created by potrace 1.16, written by Peter Selinger 2001-2019
</metadata>
<g transform="translate(0.000000,512.000000) scale(0.100000,-0.100000)"
fill="#000000" stroke="none">
<path d="M3770 4845 l-105 -105 -106 0 -106 0 -316 -311 -317 -311 0 -162 0
-161 -120 -120 -120 -120 0 -155 0 -156 -105 -104 -105 -103 0 -544 0 -545
111 -421 111 -422 69 -70 69 -70 0 -85 0 -85 233 -233 232 -232 160 0 160 0
80 -80 80 -80 366 0 367 0 161 156 161 156 0 419 0 419 120 0 120 0 0 -176 0
-176 65 -67 c54 -56 65 -73 65 -102 0 -70 61 -129 135 -129 90 0 151 65 143
151 -8 83 -75 136 -158 126 -45 -5 -49 -4 -89 37 l-41 42 0 371 0 371 24 15
c12 9 30 31 40 50 59 126 -68 251 -192 188 -90 -46 -104 -166 -27 -228 l35
-28 0 -162 0 -163 -120 0 -120 0 0 410 0 410 161 0 162 0 93 92 c88 85 97 92
138 94 24 1 58 10 75 20 32 19 71 85 71 119 0 35 -39 100 -72 119 -18 11 -52
20 -80 20 -45 1 -51 5 -118 71 l-70 69 0 187 0 187 26 17 c49 32 68 118 39
175 -35 67 -107 93 -180 66 -100 -38 -121 -164 -40 -235 l36 -31 -1 -212 -1
-211 86 -87 c86 -86 87 -88 89 -140 l1 -52 -75 -74 -75 -74 -132 0 -133 0 0
113 c0 98 -3 116 -18 130 -17 15 -78 17 -679 17 -627 0 -661 -1 -676 -18 -15
-17 -17 -60 -17 -413 l0 -395 43 -41 c38 -37 62 -47 254 -111 l211 -70 21 22
21 22 -145 138 -145 138 0 239 0 239 435 0 435 0 0 -235 0 -235 -107 0 -108 0
-62 56 c-56 49 -63 60 -63 92 0 123 -144 191 -235 111 -65 -57 -68 -143 -8
-203 33 -33 95 -51 133 -38 25 9 32 6 84 -47 l56 -57 0 -155 0 -155 -64 -63
c-59 -59 -65 -62 -98 -56 -58 11 -124 -24 -148 -77 -25 -54 -25 -72 0 -123 24
-50 70 -78 126 -78 79 0 144 64 144 143 0 31 10 45 80 115 l80 80 0 167 0 168
95 0 95 0 0 -608 0 -607 -83 -83 -82 -82 -133 0 -132 0 0 98 0 98 48 46 c40
39 53 46 87 46 144 -2 199 180 80 258 -39 25 -116 24 -151 -2 -49 -36 -66 -67
-66 -121 1 -43 -4 -55 -29 -79 l-29 -28 -130 129 -130 130 -128 3 -128 4 -62
134 c-61 130 -62 135 -47 163 33 65 8 154 -54 186 -85 44 -205 -10 -211 -95
-7 -81 30 -140 99 -161 37 -11 40 -16 112 -171 41 -88 83 -167 94 -174 14 -10
54 -14 145 -14 l125 0 128 -126 127 -126 0 -99 0 -99 -68 0 -67 0 -80 80 -80
80 -160 0 -160 1 -162 158 -163 159 0 88 0 89 -80 80 -80 80 -100 378 c-91
345 -106 407 -97 407 2 0 52 -22 112 -48 l108 -49 19 -51 c39 -104 165 -130
239 -50 99 105 -13 272 -152 224 l-42 -15 -141 63 -141 64 -3 387 -2 387 110
105 110 105 -3 47 -2 46 100 3 101 3 46 -113 47 -113 -110 -110 -109 -110 0
-83 c0 -81 0 -82 -37 -115 -33 -31 -37 -40 -41 -94 -4 -56 -2 -62 28 -96 90
-103 250 -45 250 90 0 42 -28 96 -59 113 -18 9 -21 20 -21 68 l0 58 215 215
215 215 0 222 c0 122 3 222 8 222 4 0 88 -47 186 -104 l179 -103 12 -47 c15
-57 47 -93 96 -107 147 -44 250 130 140 235 -33 32 -112 47 -148 28 -16 -9
-60 12 -273 134 -140 79 -260 144 -267 144 -8 0 -25 -11 -38 -25 l-25 -24 0
-263 0 -264 -53 -52 -54 -53 -43 110 c-23 61 -50 117 -59 125 -13 12 -49 16
-151 18 l-134 3 0 43 c-1 41 2 46 117 159 l117 118 0 160 0 160 243 243 242
242 105 0 105 0 106 105 107 105 183 2 c161 3 184 5 187 19 2 12 -43 51 -140
123 l-143 106 -95 0 -95 0 -105 -105z"/>
<path d="M4632 4794 l-162 -156 0 -474 c0 -261 -3 -474 -7 -474 -5 0 -62 15
-128 33 l-120 34 -3 202 -2 202 34 32 c107 101 6 276 -136 237 -44 -13 -95
-68 -103 -113 -8 -42 18 -110 51 -132 22 -14 24 -21 24 -105 0 -50 -1 -90 -2
-90 -2 0 -49 13 -106 28 -103 28 -103 28 -122 70 -33 74 -137 103 -206 57 -82
-54 -82 -184 1 -235 44 -27 123 -27 158 0 l25 20 124 -33 123 -34 5 -91 c3
-50 10 -96 16 -102 9 -9 150 -51 332 -99 l42 -12 0 -107 0 -107 -204 -158
-204 -157 -120 0 c-120 0 -121 0 -150 29 -102 103 -271 13 -241 -127 22 -106
173 -144 243 -62 l25 30 139 0 140 0 182 140 c99 77 183 140 186 140 2 0 4
-40 4 -88 0 -80 2 -91 23 -110 20 -19 35 -22 108 -22 76 0 88 2 107 23 22 23
22 29 22 343 l0 319 163 64 c89 35 169 72 178 82 11 12 19 46 24 91 11 117 -2
108 141 108 l124 0 78 39 c72 36 83 39 138 34 72 -6 115 11 144 60 50 82 -1
195 -95 213 -75 14 -165 -52 -165 -121 0 -33 -4 -37 -70 -70 -66 -33 -75 -35
-171 -35 l-101 0 6 31 c3 17 6 41 6 54 0 14 9 26 25 33 60 28 83 127 45 190
-27 44 -96 75 -146 66 -80 -15 -139 -107 -114 -177 6 -18 23 -45 39 -62 l29
-30 -19 -169 c-10 -93 -20 -170 -21 -172 -2 -2 -85 -35 -225 -91 -10 -4 -13
75 -13 374 l0 378 83 83 82 82 163 0 162 0 108 -105 107 -104 105 -1 105 0
283 -283 283 -283 -2 -144 -1 -144 101 -99 101 -99 0 -74 0 -74 -133 0 -133 0
-67 140 c-62 133 -65 142 -51 168 48 93 -35 210 -143 199 -86 -9 -146 -92
-124 -174 15 -54 71 -103 119 -103 15 0 36 -37 98 -166 77 -163 92 -184 133
-184 20 0 21 -5 20 -112 l0 -113 -142 -116 c-130 -106 -144 -115 -169 -107
-61 21 -148 -31 -168 -102 -21 -73 35 -159 114 -174 80 -15 166 55 166 136 0
36 6 42 158 169 86 72 160 139 164 148 4 9 7 74 7 144 l1 128 86 -3 86 -3 49
-125 c27 -69 49 -130 49 -137 0 -6 -78 -78 -172 -158 -95 -81 -173 -150 -173
-155 0 -5 87 -69 194 -143 l193 -134 3 -162 c2 -130 0 -175 -15 -232 -10 -39
-20 -73 -22 -75 -3 -2 -63 8 -134 22 l-130 26 -32 95 -31 95 21 39 c65 124
-62 253 -189 192 -46 -22 -73 -67 -73 -123 0 -60 29 -106 83 -130 40 -18 43
-23 75 -114 l33 -96 -62 -90 c-59 -85 -65 -90 -99 -90 -75 0 -134 -62 -134
-140 0 -125 151 -185 240 -96 36 36 52 94 38 135 -9 23 -2 37 50 111 33 47 60
86 61 87 2 3 246 -45 249 -49 2 -2 -26 -111 -61 -243 l-64 -240 -79 -80 -80
-80 0 -92 0 -91 -58 -50 -58 -51 -102 102 c-95 96 -102 105 -96 134 4 20 -1
46 -15 77 -16 38 -29 50 -67 67 -125 56 -246 -65 -187 -188 22 -47 67 -73 124
-73 43 0 49 -4 153 -102 l107 -101 -63 -64 -62 -63 -161 0 -160 0 -80 -80 -80
-80 -276 0 c-251 0 -277 -2 -283 -17 -5 -12 22 -45 101 -125 l108 -108 230 0
230 0 80 80 80 80 160 0 160 0 233 233 232 232 0 85 0 85 69 70 69 70 111 422
111 421 0 246 0 245 -120 83 c-66 46 -120 85 -119 88 0 3 51 48 114 100 69 58
115 104 118 118 3 14 -29 106 -79 234 l-84 211 0 136 0 136 -100 100 -100 100
0 146 0 147 -357 351 -356 351 -106 0 -106 0 -105 105 -105 105 -266 0 -266 0
-161 -156z"/>
<path d="M5397 3812 c-15 -17 -17 -63 -17 -449 l0 -431 25 -16 c19 -12 51 -16
143 -16 l119 0 17 43 c9 23 16 48 16 55 0 31 -180 792 -192 811 -17 28 -87 30
-111 3z"/>
<path d="M5397 2162 c-15 -17 -17 -64 -17 -463 0 -333 3 -448 12 -457 7 -7 34
-12 60 -12 45 0 49 2 63 33 9 17 62 212 119 431 l104 399 -16 44 -16 43 -147
0 c-129 0 -148 -2 -162 -18z"/>
</g>
</svg>
